<svg viewBox="0 0 120 120" fill="none" xmlns="http://www.w3.org/2000/svg">
  <circle cx="35" cy="65" r="22" stroke="#3b82f6" stroke-width="2" fill="none"/>
  <circle cx="35" cy="65" r="18" stroke="#ef4444" stroke-width="1" fill="rgba(239,68,68,0.05)"/>
  <circle cx="35" cy="65" r="5" fill="#ef4444" opacity="0.3"/>
  <circle cx="85" cy="65" r="22" stroke="#3b82f6" stroke-width="2" fill="none"/>
  <circle cx="85" cy="65" r="18" stroke="#ef4444" stroke-width="1" fill="rgba(239,68,68,0.05)"/>
  <circle cx="85" cy="65" r="5" fill="#ef4444" opacity="0.3"/>
  <line x1="57" y1="65" x2="63" y2="65" stroke="#3b82f6" stroke-width="3"/>
  <line x1="35" y1="43" x2="35" y2="30" stroke="#ef4444" stroke-width="1.5"/>
  <line x1="85" y1="43" x2="85" y2="30" stroke="#ef4444" stroke-width="1.5"/>
  <line x1="57" y1="30" x2="63" y2="30" stroke="#3b82f6" stroke-width="2"/>
  <rect x="30" y="28" width="60" height="4" rx="2" fill="rgba(59,130,246,0.3)"/>
  <line x1="35" y1="87" x2="35" y2="100" stroke="#ef4444" stroke-width="1.5"/>
  <line x1="85" y1="87" x2="85" y2="100" stroke="#ef4444" stroke-width="1.5"/>
  <rect x="30" y="98" width="60" height="4" rx="2" fill="rgba(59,130,246,0.3)"/>
  <line x1="35" y1="30" x2="35" y2="43" stroke="#3b82f6" stroke-width="1" opacity="0.3"/>
  <line x1="85" y1="30" x2="85" y2="43" stroke="#3b82f6" stroke-width="1" opacity="0.3"/>
</svg>
